<?xml version="1.0" encoding="utf-8"?>
<!-- Generator: Adobe Illustrator 19.0.0, SVG Export Plug-In . SVG Version: 6.00 Build 0)  -->
<svg version="1.1" id="layer" xmlns="http://www.w3.org/2000/svg" xmlns:xlink="http://www.w3.org/1999/xlink" x="0px" y="0px"
	 viewBox="-153 -46 652 652" style="enable-background:new -153 -46 652 652;" xml:space="preserve">
<style type="text/css">
	.st0{fill:#E72C30;}
</style>
<path class="st0" d="M306.7,316.9c1.5-8.1,2.8-15.7,4.1-23.2c4.6-25.7,9.2-51.5,13.6-77.2c1.3-7.4-3.3-12.8-11.1-13.2
	c-4.9-0.2-10-0.1-14.9-0.1c-10.3,0.1-17.2,6.1-18.9,16.1c-5.5,31.6-11.2,63.2-16.9,94.7c-0.2,1.1-1.5,2.8-2.3,2.8
	c-14.2-0.2-28.3-0.4-42.4-1.3c-9.2-0.6-16.5-5.1-21.7-12.7c-0.3-0.4-0.7-0.6-1.2-1.2c-2,2.1-3.8,4.1-5.7,5.9
	c-6.5,6.4-14,10.2-23.3,9.5c-6.6-0.5-13.4,0-19.9-1.2c-11.6-2.1-21-7.7-26.7-18.9c-0.9,3.9-1.8,7.7-2.7,11.5
	c-2,9.2-1.9,9.2-11.5,8.7c-6.8-0.3-13.7-1.2-19.6-4.7c-4.5-2.7-8.4-6.6-12.9-10.2c-1.3,1.4-3.1,3.4-5,5.2c-6.5,6.3-14,9.9-23.3,9.5
	c-8.9-0.4-17.9,0.2-26.5-2.9c-15.4-5.6-23.8-18.9-21.1-34.9C0.4,258,3.4,236.8,8.2,216c4.9-20.9,17.6-35.5,40.1-40
	c3.2-0.6,6.5-1,9.7-1c18.5-0.1,37.1-0.1,55.6-0.1c0.9,0,1.8,0.1,3.1,0.3c-1.8,10.2-3.6,20.1-5.4,30c-4.1,23-8.4,45.8-12.4,68.8
	c-0.4,2.1,0.5,4.8,1.6,6.7c2.8,4.9,11.3,8.4,17,7.4c2.1-24.4,7-48.3,12.1-72c4.6-21,17.6-35.8,40.2-40.3c3.2-0.6,6.5-1,9.7-1
	c18.5-0.1,37.1-0.1,55.6-0.1c0.8,0,1.7,0.1,2.9,0.2c-1.1,6.2-2.1,12.3-3.2,18.3c-4.9,27.2-10,54.5-14.9,81.7
	c-0.7,3.9,0.6,7.1,3.8,9.4c1.2,0.9,2.6,1.9,4.1,2.2c3,0.8,6.3,2.1,9.2,1.6c3.9-0.8,2.5-5.1,3-7.8c5.7-30.8,11.1-61.5,16.6-92.3
	c0.8-4.3,1.6-8.6,2.5-13.2c1.2-0.1,2.2-0.2,3.3-0.2c18,0,36.1-0.1,54.2,0c7,0,14,1.6,20.4,4.6c10.8,5.3,17.2,13.9,16.7,25.9
	c-0.4,10-2.2,20-3.9,30c-4.4,25.2-8.9,50.4-13.5,75.4c-0.2,1.4-0.4,2.9-0.8,4.2c-0.3,0.7-1.2,1.6-1.9,1.6
	C324.7,317,315.9,316.9,306.7,316.9L306.7,316.9z M83.2,203.5c-1.1-0.2-1.5-0.3-1.7-0.3c-9.2,0-18.4-0.1-27.6,0
	c-9.2,0.1-16.1,5.6-17.7,14.4c-3.6,18.8-7,37.6-10.2,56.4c-1.6,9.5,3.2,14.9,13.2,15.3c4,0.1,8,0.1,12,0c11-0.1,17.5-5.6,19.5-16.3
	c3-16.6,6.1-33.2,9.2-49.7C80.9,216.6,82,210,83.2,203.5L83.2,203.5z M204.7,203.5c-1-0.2-1.4-0.4-1.7-0.4c-9.2,0-18.4-0.1-27.6,0
	c-9.3,0.1-16.2,5.6-17.9,14.6c-3.5,18.8-6.9,37.6-10.2,56.4c-1.4,8.5,2.3,13.6,11.1,14.7c4.8,0.6,9.7,0.4,14.5,0.4
	c10.5-0.1,17.2-5.6,19.1-15.9l8.5-45.9C201.9,219.6,203.3,211.7,204.7,203.5z M-46.6,317c-2.5,0-4.6,0.1-6.6,0
	c-10-0.2-20.1,0.2-30.1-0.9c-15.1-1.7-25.5-11-28.5-23.8c-1.7-7-0.7-13.9,0.5-20.9c3.3-18.5,6.5-37,10.1-55.4
	c4.3-22.3,21.8-38.3,45-40.1c13.6-1.1,27.3-0.6,41-0.8c7.3-0.1,14.5,0,22.3,0c-0.9,5.6-1.8,11-2.8,16.3
	c-5.2,29.2-10.5,58.5-15.9,87.7c-3.3,18.4-6.4,36.8-10.2,55.1c-5.1,25-24.4,36.5-44.3,39.3c-4.8,0.6-9.7,0.7-14.5,0.7
	c-16.7,0.1-33.5,0-50.2,0c-0.2,0-0.4-0.1-0.9-0.2c0.1-0.4,0-0.9,0.2-1.2c4.7-8.2,9.2-16.5,14.1-24.5c0.7-1.1,2.9-1.9,4.4-1.9
	c14.7-0.1,29.3-0.1,44-0.1c11.2,0,16.9-4.5,19.3-15.3C-48.3,326.5-47.6,322.2-46.6,317L-46.6,317z M-57.7,288.8v0.4
	c3.8,0,7.6-0.3,11.3,0.1c3.7,0.4,5-1.1,5.6-4.6c3.9-22.5,7.8-44.9,11.9-67.4c1.5-8.4-2.8-13.9-11.6-14.2c-4.9-0.1-9.7-0.1-14.5-0.1
	c-9.7,0.1-16.4,5.6-18.1,15.2c-1.9,10.3-3.9,20.5-5.7,30.8c-1.6,9.2-3.4,18.5-4.5,27.7c-0.8,6.6,2.9,11,9.8,11.8
	C-68.4,289.3-63,288.8-57.7,288.8z M468.5,175.2c-2.5,14.2-5.1,28-7.6,41.8c-3.5,19-7,38.1-10.3,57.1c-1.4,7.7,1.9,12.4,9.4,14.9
	c0.9,0.3,2,2.1,1.9,3c-1.3,8.2-2.8,16.4-4.4,25c-12.9-0.8-24.1-4.6-32.1-15.5c-2.1,2.2-3.9,4.3-5.9,6.2c-6.4,6.1-13.8,9.9-23.1,9.4
	c-8.1-0.4-16.1,0.4-24.1-2.1c-17.8-5.4-26.8-19.2-23.6-37.3c3.6-20.7,6.6-41.5,11.3-62.1c4.5-19.3,16.1-33.4,36.5-38.8
	c4.2-1.1,8.5-1.7,12.9-1.8c18.9-0.2,37.8-0.1,56.7-0.1C466.7,175.1,467.4,175.1,468.5,175.2L468.5,175.2z M435,203.5
	c-1.5-0.1-2.3-0.3-3.3-0.3c-8.7,0-17.4-0.1-26.2,0c-9,0.1-15.9,5.4-17.5,14.1c-3.6,19.4-7,38.8-10.4,58.2
	c-1.2,7.3,2.5,12.3,10.1,13.2c4.9,0.6,9.9,0.5,14.8,0.5c11.3,0,17.9-5.7,19.9-16.7c3.2-18,6.6-36,9.9-53.9
	C433.3,213.6,434.1,208.7,435,203.5z"/>
</svg>
