<svg width="63" height="63" viewBox="0 0 63 63" fill="none" xmlns="http://www.w3.org/2000/svg">
<path d="M30.9692 0C2.24892 0 0 2.24892 0 30.9692V31.5308C0 60.2511 2.24892 62.5 30.9692 62.5H31.5308C60.2511 62.5 62.5 60.2511 62.5 31.5308V31.25C62.5 2.26875 60.2313 0 31.25 0H30.9692ZM25 6.25H37.5C54.8891 6.25 56.25 7.61094 56.25 25V37.5C56.25 54.8891 54.8891 56.25 37.5 56.25H25C7.61094 56.25 6.25 54.8891 6.25 37.5V25C6.25 7.61094 7.61094 6.25 25 6.25ZM46.8658 12.5C45.1393 12.5047 43.7453 13.9076 43.75 15.6342C43.7547 17.3607 45.1576 18.7547 46.8842 18.75C48.6107 18.7453 50.0047 17.3424 50 15.6158C49.9953 13.8893 48.5924 12.4953 46.8658 12.5ZM31.2134 15.625C22.5853 15.6453 15.6047 22.6585 15.625 31.2866C15.6453 39.9147 22.6585 46.8953 31.2866 46.875C39.9147 46.8547 46.8953 39.8415 46.875 31.2134C46.8547 22.5853 39.8415 15.6047 31.2134 15.625ZM31.2286 21.875C36.4052 21.8625 40.6125 26.0521 40.625 31.2286C40.6359 36.4052 36.4479 40.6125 31.2714 40.625C26.0948 40.6375 21.8875 36.4495 21.875 31.2714C21.8625 26.0948 26.0521 21.8875 31.2286 21.875Z" fill="white"/>
</svg>
