<svg width="118" height="34" viewBox="0 0 118 34" fill="none" xmlns="http://www.w3.org/2000/svg">
<g clip-path="url(#clip0_7_2)">
<path d="M0.03125 17C0.03125 26.35 7.68125 34 17.0312 34C26.3813 34 34.0312 26.35 34.0312 17C34.0312 7.65 26.3813 0 17.0312 0C7.68125 0 0.03125 7.65 0.03125 17Z" fill="#1ECCB0"/>
<path d="M14.6937 26.6688C14.0562 25.6063 13.2062 24.65 12.1437 24.0125C11.0812 23.375 10.0187 22.8438 8.74373 22.525C8.63748 22.525 8.53123 22.525 8.42498 22.6313C8.31873 22.7375 8.31873 22.8438 8.31873 22.95C8.31873 23.0563 8.31873 23.1625 8.42498 23.1625C9.80623 25.1813 11.9312 26.6688 14.2687 27.3063H14.375C14.4812 27.3063 14.4812 27.3063 14.5875 27.3063C14.5875 27.3063 14.6937 27.3063 14.6937 27.2L14.8 27.0938C14.8 27.0938 14.8 26.9875 14.8 26.8813C14.8 26.775 14.8 26.6688 14.6937 26.6688Z" fill="white"/>
<path d="M27.2312 14.1313V14.025C26.7 12.1125 25.6375 10.4125 24.15 9.13753C22.6625 7.86252 20.9625 6.90627 19.05 6.58752H18.9437C18.8375 6.58752 18.7312 6.58752 18.625 6.69377C18.5187 6.80002 18.5187 6.90627 18.5187 7.01252V7.11877C19.475 12.9625 18.8375 18.9125 16.7125 24.4375C16.7125 24.5438 16.6062 24.5438 16.6062 24.65C16.6062 24.7563 16.5 24.7563 16.3937 24.7563C16.2875 24.7563 16.2875 24.7563 16.1812 24.7563C16.1812 24.7563 16.075 24.7563 16.075 24.65L15.9687 24.5438C15.9687 24.5438 15.9687 24.4375 15.9687 24.3313C15.9687 24.3313 15.8625 23.5875 15.8625 23.2688C15.225 18.1688 13.7375 13.2813 11.2937 8.71252C11.2937 8.60627 11.1875 8.60628 11.1875 8.60628L11.0812 8.50002C11.0812 8.50002 10.975 8.50002 10.8687 8.50002C10.7625 8.50002 10.7625 8.50002 10.6562 8.50002C9.16873 9.66877 7.99998 11.1563 7.25623 12.9625C7.25623 13.0688 7.25623 13.175 7.25623 13.2813C7.25623 13.3875 7.36248 13.4938 7.46873 13.4938C9.80623 14.9813 11.7187 16.8938 13.1 19.3375C14.4812 21.675 15.225 24.4375 15.3312 27.0938C15.3312 27.2 15.3312 27.3063 15.4375 27.4125C15.5437 27.5188 15.65 27.5188 15.65 27.5188C15.8625 27.5188 16.1812 27.625 16.3937 27.625C16.5 27.625 16.6062 27.625 16.7125 27.5188C16.8187 27.4125 16.8187 27.4125 16.8187 27.3063C17.35 24.5438 18.5187 21.8875 20.325 19.6563C22.1312 17.425 24.3625 15.725 27.0187 14.5563C27.125 14.5563 27.125 14.45 27.2312 14.45C27.2312 14.2375 27.2312 14.2375 27.2312 14.1313Z" fill="white"/>
<path d="M26.275 22.2062C26.275 22.1 26.275 21.9938 26.1688 21.8875C26.0625 21.7813 25.9563 21.7812 25.85 21.7812H25.7438C22.45 22.525 19.475 24.3312 17.35 26.8812C17.2438 26.9875 17.2438 27.0938 17.2438 27.2C17.2438 27.3063 17.2438 27.4125 17.35 27.5187C17.4563 27.625 17.5625 27.625 17.6688 27.625C19.3688 27.5187 21.0688 26.9875 22.5563 26.1375C24.0438 25.2875 25.3188 24.0125 26.1688 22.525C26.275 22.4188 26.275 22.3125 26.275 22.2062Z" fill="white"/>
<path d="M42.85 23.375C42 23.375 41.15 23.2688 40.4062 22.8438C39.7687 22.525 39.2375 21.9938 38.8125 21.3563C38.4937 20.6125 38.2812 19.8688 38.2812 19.125V18.8063H41.2562C41.2562 19.3375 41.3625 19.7625 41.575 20.1875C41.7875 20.4 42.2125 20.6125 42.5312 20.6125C42.85 20.6125 43.275 20.6125 43.5938 20.4C43.8063 20.2938 43.9125 19.975 44.0188 19.7625C44.125 19.4438 44.125 19.125 44.125 18.8063V9.77502H47.4187V18.7C47.525 19.975 47.1 21.25 46.25 22.2063C45.825 22.6313 45.1875 22.95 44.6562 23.1625C44.0187 23.2688 43.4875 23.375 42.85 23.375Z" fill="white"/>
<path d="M50.7125 11.7938C50.3937 11.7938 50.075 11.6875 49.8625 11.5813C49.65 11.475 49.4375 11.2625 49.225 11.05C49.1187 10.8375 49.0125 10.5188 49.0125 10.2C49.0125 9.88126 49.1187 9.56251 49.225 9.35001C49.3312 9.13751 49.5437 8.92501 49.8625 8.81876C50.1812 8.71251 50.3937 8.60626 50.7125 8.60626C51.0312 8.60626 51.35 8.71251 51.5625 8.81876C51.775 8.92501 51.9875 9.13751 52.2 9.35001C52.3062 9.56251 52.4125 9.88126 52.4125 10.2C52.4125 10.5188 52.3062 10.7313 52.2 11.05C52.0937 11.2625 51.8812 11.475 51.5625 11.5813C51.35 11.6875 51.0312 11.7938 50.7125 11.7938ZM49.225 23.0563V13.175H52.2V23.0563H49.225Z" fill="white"/>
<path d="M58.7875 23.375C57.8312 23.375 56.875 23.1625 56.1312 22.7375C55.3875 22.3125 54.75 21.675 54.325 20.9313C53.9 20.0813 53.6875 19.125 53.6875 18.1688C53.6875 17.2125 53.9 16.2563 54.325 15.4063C54.75 14.6625 55.2812 14.025 56.1312 13.6C56.9812 13.175 57.9375 12.9625 58.7875 12.9625C59.7437 12.9625 60.5937 13.175 61.4437 13.6C62.1875 14.025 62.825 14.6625 63.1438 15.4063C63.5688 16.2563 63.7812 17.2125 63.7812 18.1688C63.7812 19.125 63.5688 20.0813 63.1438 20.9313C62.7188 21.675 62.0813 22.3125 61.3375 22.7375C60.5938 23.1625 59.6375 23.375 58.7875 23.375ZM58.7875 21.1438C59.2125 21.1438 59.6375 21.0375 59.9563 20.825C60.275 20.5063 60.5937 20.1875 60.7 19.7625C60.9125 19.2313 60.9125 18.7 60.9125 18.1688C60.9125 17.6375 60.8062 17.1063 60.7 16.6813C60.5937 16.2563 60.3813 15.9375 60.0625 15.6188C59.7437 15.3 59.3188 15.1938 58.8938 15.1938C58.4688 15.1938 58.15 15.3 57.8313 15.5125C57.5125 15.725 57.3 16.15 57.0875 16.4688C56.875 17 56.875 17.5313 56.875 18.0625C56.875 18.5938 56.9813 19.125 57.0875 19.6563C57.1938 20.0813 57.4063 20.4 57.8313 20.7188C57.9375 20.9313 58.3625 21.0375 58.7875 21.1438Z" fill="white"/>
<path d="M70.4751 23.375C69.5188 23.375 68.5625 23.2687 67.7125 22.95C66.8625 22.6312 66.1188 22.2062 65.5875 21.5687C65.0563 20.9312 64.7375 20.0812 64.7375 19.3375V19.125H68.0313C68.0313 19.4437 68.1376 19.8687 68.3501 20.0812C68.5626 20.4 68.8813 20.5062 69.3063 20.6125C69.7313 20.7187 70.1563 20.825 70.5813 20.825C71.1125 20.825 71.75 20.7187 72.175 20.5062C72.3875 20.4 72.4938 20.2937 72.7063 20.0812C72.8125 19.8687 72.9188 19.6562 72.8125 19.4437C72.8125 19.2312 72.7063 18.9125 72.6001 18.8062C72.3876 18.5937 72.175 18.3812 71.9625 18.275C71.5375 18.0625 71.1125 17.9562 70.6875 17.85L68.2438 17.2125C67.6063 17.1062 67.075 16.7875 66.5438 16.3625C66.1188 16.0437 65.6938 15.6187 65.4813 15.1937C65.2688 14.6625 65.1625 14.1312 65.1625 13.6C65.1625 12.75 65.375 12.0062 65.9063 11.3687C66.4375 10.7312 67.075 10.3062 67.8188 9.98749C68.5625 9.56249 69.5188 9.45624 70.3688 9.56249C71.325 9.56249 72.175 9.66874 73.025 9.98749C73.7688 10.2 74.4063 10.7312 74.8313 11.2625C75.2563 11.9 75.575 12.6437 75.575 13.3875H72.3875C72.3875 13.175 72.2813 12.9625 72.175 12.75C72.0688 12.5375 71.9625 12.4312 71.75 12.325C71.2188 12.1125 70.6875 11.9 70.1563 12.0062C69.7313 12.0062 69.2 12.1125 68.775 12.325C68.5625 12.4312 68.4563 12.5375 68.3501 12.6437C68.2438 12.75 68.2438 12.9625 68.2438 13.175C68.2438 13.3875 68.2438 13.6 68.3501 13.8125C68.4563 14.025 68.6688 14.1312 68.8813 14.2375C69.2001 14.3437 69.6251 14.5562 69.9438 14.5562L71.5376 14.9812C72.3876 15.1937 73.1313 15.5125 73.875 15.8312C74.5125 16.15 74.9375 16.4687 75.3625 17C75.7875 17.5312 76 18.275 75.8938 18.9125C75.8938 19.7625 75.6813 20.5062 75.2563 21.25C74.7251 21.8875 74.0875 22.4187 73.3438 22.7375C72.4938 23.1625 71.4313 23.375 70.4751 23.375Z" fill="white"/>
<path d="M80.3563 23.375C79.7188 23.375 79.0813 23.2688 78.55 23.0563C78.0188 22.8438 77.5938 22.4188 77.3813 21.9938C77.0626 21.4625 76.9563 20.9313 76.9563 20.2938C76.9563 19.7625 77.0625 19.3375 77.275 18.9125C77.4875 18.4875 77.8063 18.1688 78.2313 17.85C79.4 17.2125 80.675 17 81.8438 17.1063H83.3313V16.7875C83.3313 16.4688 83.3313 16.0438 83.2251 15.725C83.1188 15.5125 82.9063 15.3 82.6938 15.0875C82.3751 14.9813 82.0563 14.875 81.8438 14.875C81.4188 14.875 80.9938 14.9813 80.675 15.1938C80.5688 15.3 80.4625 15.4063 80.3563 15.5125C80.25 15.6188 80.25 15.8313 80.25 15.9375H77.3813C77.3813 15.3 77.5938 14.7688 78.0188 14.3438C78.4438 13.8125 78.975 13.4938 79.6125 13.2813C80.3563 13.0688 81.2063 12.9625 82.0563 12.9625C82.9063 12.9625 83.7563 13.0688 84.5 13.3875C85.1375 13.6 85.5626 14.1313 85.8813 14.6625C86.2001 15.4063 86.4125 16.15 86.3063 16.8938V23.0563H83.65L83.5438 21.8875C83.225 22.3125 82.9063 22.7375 82.375 22.95C81.7375 23.1625 80.9938 23.375 80.3563 23.375ZM81.4188 21.25C81.7375 21.25 82.1625 21.1438 82.4813 21.0375C82.8 20.9313 83.0125 20.6125 83.1188 20.4C83.3313 20.0813 83.3313 19.6563 83.3313 19.3375V18.7H82.2688C81.8438 18.7 81.4188 18.7 80.9938 18.8063C80.675 18.9125 80.4625 19.0188 80.25 19.2313C80.1438 19.3375 80.0376 19.4438 80.0376 19.55C80.0376 19.6563 79.9313 19.8688 79.9313 19.975C79.9313 20.1875 79.9313 20.2938 80.0376 20.5063C80.1438 20.7188 80.25 20.825 80.3563 20.9313C80.675 21.1438 80.9938 21.25 81.4188 21.25Z" fill="white"/>
<path d="M90.875 23.375C90.2375 23.375 89.6 23.2688 89.0687 23.0563C88.5375 22.8438 88.1125 22.4188 87.9 21.9938C87.5812 21.4625 87.475 20.9313 87.475 20.2938C87.475 19.7625 87.5812 19.3375 87.7937 18.9125C88.0062 18.4875 88.325 18.1688 88.75 17.85C89.9187 17.2125 91.1937 17 92.4687 17H93.9562V16.6813C93.9562 16.3625 93.9562 15.9375 93.85 15.6188C93.7437 15.4063 93.5312 15.1938 93.3187 15.0875C93 14.9813 92.6812 14.875 92.4687 14.875C92.0437 14.875 91.6187 14.9813 91.3 15.1938C91.1937 15.3 91.0875 15.4063 90.9812 15.5125C90.875 15.6188 90.875 15.8313 90.875 15.9375H88.0062C88.0062 15.3 88.2187 14.7688 88.6437 14.3438C89.0687 13.8125 89.6 13.4938 90.2375 13.2813C90.9812 13.0688 91.8312 12.9625 92.6812 12.9625C93.5312 12.9625 94.3812 13.0688 95.125 13.3875C95.7625 13.6 96.1875 14.1313 96.5062 14.6625C96.825 15.4063 97.0375 16.15 96.9312 16.8938V23.0563H94.1687L94.0625 21.8875C93.7437 22.3125 93.425 22.7375 92.8937 22.95C92.2562 23.1625 91.5125 23.375 90.875 23.375ZM91.9375 21.25C92.2562 21.25 92.6812 21.1438 93 21.0375C93.3187 20.9313 93.5312 20.6125 93.6375 20.4C93.85 20.0813 93.85 19.6563 93.85 19.3375V18.7H92.7875C92.3625 18.7 91.9375 18.7 91.5125 18.8063C91.1937 18.9125 90.9812 19.0188 90.7687 19.2313C90.6625 19.3375 90.5562 19.4438 90.5562 19.55C90.5562 19.6563 90.45 19.8688 90.45 19.975C90.45 20.1875 90.45 20.2938 90.5562 20.5063C90.6625 20.7188 90.7687 20.825 90.875 20.9313C91.1937 21.1438 91.5125 21.25 91.9375 21.25Z" fill="white"/>
<path d="M100.65 23.0562L97.4625 13.175H100.65L102.456 19.7625L104.263 13.175H107.131L103.944 23.0562H100.65Z" fill="white"/>
<path d="M108.194 23.0563V13.175H111.062V14.5563C111.381 14.025 111.806 13.6 112.337 13.3875C112.869 13.0688 113.4 12.9625 114.037 12.9625C114.675 12.9625 115.312 13.0688 115.95 13.3875C116.481 13.7063 116.906 14.1313 117.119 14.6625C117.437 15.3 117.544 16.0438 117.544 16.7875V23.1625H114.569V17.6375C114.569 17 114.462 16.3625 114.144 15.8313C114.037 15.6188 113.825 15.5125 113.612 15.4063C113.4 15.3 113.187 15.3 112.975 15.3C112.762 15.3 112.444 15.3 112.231 15.4063C112.019 15.5125 111.806 15.6188 111.594 15.8313C111.275 16.3625 111.062 17 111.169 17.6375V23.0563H108.194Z" fill="white"/>
</g>
<defs>
<clipPath id="clip0_7_2">
<rect width="118" height="34" fill="white"/>
</clipPath>
</defs>
</svg>
